<svg xmlns="http://www.w3.org/2000/svg" xmlns:xlink="http://www.w3.org/1999/xlink" width="537.002" height="884.001" viewBox="0 0 537.002 884.001">
  <defs>
    <filter id="Union_2" x="0" y="0" width="537.002" height="884.001" filterUnits="userSpaceOnUse">
      <feOffset dy="3" input="SourceAlpha"/>
      <feGaussianBlur stdDeviation="3" result="blur"/>
      <feFlood flood-opacity="0.161"/>
      <feComposite operator="in" in2="blur"/>
      <feComposite in="SourceGraphic"/>
    </filter>
  </defs>
  <g transform="matrix(1, 0, 0, 1, 0, 0)" filter="url(#Union_2)">
    <g id="Union_2-2" data-name="Union 2" transform="translate(9027 2)" fill="#fff">
      <path d="M -8499.4990234375 869.499755859375 L -9017.5009765625 869.499755859375 L -9017.5009765625 15.50064277648926 L -8972.9609375 15.50064277648926 L -8972.7314453125 15.50064277648926 L -8972.58203125 15.32664203643799 L -8963.5 4.765932083129883 L -8954.41796875 15.32664203643799 L -8954.2685546875 15.50064277648926 L -8954.0390625 15.50064277648926 L -8499.4990234375 15.50064277648926 L -8499.4990234375 869.499755859375 Z" stroke="none"/>
      <path d="M -8499.9990234375 868.999755859375 L -8499.9990234375 16.00064277648926 L -8954.498046875 16.00064277648926 L -8954.796875 15.65264225006104 L -8963.5 5.532777309417725 L -8972.501953125 16.00064277648926 L -9017.0009765625 16.00064277648926 L -9017.0009765625 868.999755859375 L -8499.9990234375 868.999755859375 M -8498.9990234375 869.999755859375 L -9018.0009765625 869.999755859375 L -9018.0009765625 15.00064277648926 L -8972.9609375 15.00064277648926 L -8963.5 3.999086856842041 L -8954.0390625 15.00064277648926 L -8498.9990234375 15.00064277648926 L -8498.9990234375 869.999755859375 Z" stroke="none" fill="#ebebeb"/>
    </g>
  </g>
</svg>
