<svg xmlns="http://www.w3.org/2000/svg" width="64.333" height="6.825" viewBox="0 0 64.333 6.825">
  <g id="Group_6" data-name="Group 6" transform="translate(-767.65 -2577.258)">
    <path id="Icon_awesome-long-arrow-alt-left" data-name="Icon awesome-long-arrow-alt-left" d="M4.155,14.91H24.971a.372.372,0,0,0,.372-.372V12.8a.372.372,0,0,0-.372-.372H4.155V11a.744.744,0,0,0-1.27-.526L.218,13.145a.744.744,0,0,0,0,1.052l2.667,2.667a.744.744,0,0,0,1.27-.526Z" transform="translate(767.65 2567)" fill="#fff"/>
    <path id="Icon_awesome-long-arrow-alt-left-2" data-name="Icon awesome-long-arrow-alt-left" d="M21.189,14.91H.372A.372.372,0,0,1,0,14.538V12.8a.372.372,0,0,1,.372-.372H21.189V11a.744.744,0,0,1,1.27-.526l2.667,2.667a.744.744,0,0,1,0,1.052l-2.667,2.667a.744.744,0,0,1-1.27-.526Z" transform="translate(806.64 2567)" fill="#fff"/>
  </g>
</svg>
